<svg xmlns="http://www.w3.org/2000/svg" width="980" height="560" viewBox="0 0 980 560">
<rect width="100%" height="100%" fill="#fbfaf7"/>
<text x="490.0" y="34.0" text-anchor="middle" font-size="20" font-weight="700" fill="#1d2528">Patristic Distance Correlation</text>
<text x="20.0" y="264.0" text-anchor="middle" font-size="13" font-weight="400" fill="#1d2528">Correlation</text>
<line x1="88" y1="464" x2="952" y2="464" stroke="#2d3336" stroke-width="1.2"/>
<line x1="88" y1="64" x2="88" y2="464" stroke="#2d3336" stroke-width="1.2"/>
<line x1="83" y1="464.0" x2="952" y2="464.0" stroke="#d9d4ca" stroke-width="1"/>
<text x="78.0" y="468.0" text-anchor="end" font-size="11" font-weight="400" fill="#1d2528">0.00</text>
<line x1="83" y1="384.0" x2="952" y2="384.0" stroke="#d9d4ca" stroke-width="1"/>
<text x="78.0" y="388.0" text-anchor="end" font-size="11" font-weight="400" fill="#1d2528">0.20</text>
<line x1="83" y1="304.0" x2="952" y2="304.0" stroke="#d9d4ca" stroke-width="1"/>
<text x="78.0" y="308.0" text-anchor="end" font-size="11" font-weight="400" fill="#1d2528">0.40</text>
<line x1="83" y1="224.0" x2="952" y2="224.0" stroke="#d9d4ca" stroke-width="1"/>
<text x="78.0" y="228.0" text-anchor="end" font-size="11" font-weight="400" fill="#1d2528">0.60</text>
<line x1="83" y1="144.0" x2="952" y2="144.0" stroke="#d9d4ca" stroke-width="1"/>
<text x="78.0" y="148.0" text-anchor="end" font-size="11" font-weight="400" fill="#1d2528">0.80</text>
<line x1="83" y1="64.0" x2="952" y2="64.0" stroke="#d9d4ca" stroke-width="1"/>
<text x="78.0" y="68.0" text-anchor="end" font-size="11" font-weight="400" fill="#1d2528">1.00</text>
<text x="174.4" y="498.0" text-anchor="middle" font-size="12" font-weight="400" fill="#1d2528">Very low</text>
<rect x="109.0" y="78.0" width="38.3" height="386.0" fill="#2f6f73"/>
<text x="128.1" y="72.0" text-anchor="middle" font-size="10" font-weight="400" fill="#1d2528">0.97</text>
<rect x="155.3" y="93.8" width="38.3" height="370.2" fill="#b24f2a"/>
<text x="174.4" y="87.8" text-anchor="middle" font-size="10" font-weight="400" fill="#1d2528">0.93</text>
<rect x="201.5" y="74.0" width="38.3" height="390.0" fill="#5f5aa2"/>
<text x="220.7" y="68.0" text-anchor="middle" font-size="10" font-weight="400" fill="#1d2528">0.97</text>
<text x="347.2" y="498.0" text-anchor="middle" font-size="12" font-weight="400" fill="#1d2528">Low</text>
<rect x="281.8" y="75.2" width="38.3" height="388.8" fill="#2f6f73"/>
<text x="300.9" y="69.2" text-anchor="middle" font-size="10" font-weight="400" fill="#1d2528">0.97</text>
<rect x="328.1" y="75.7" width="38.3" height="388.3" fill="#b24f2a"/>
<text x="347.2" y="69.7" text-anchor="middle" font-size="10" font-weight="400" fill="#1d2528">0.97</text>
<rect x="374.3" y="70.3" width="38.3" height="393.7" fill="#5f5aa2"/>
<text x="393.5" y="64.3" text-anchor="middle" font-size="10" font-weight="400" fill="#1d2528">0.98</text>
<text x="520.0" y="498.0" text-anchor="middle" font-size="12" font-weight="400" fill="#1d2528">Normal</text>
<rect x="454.6" y="256.7" width="38.3" height="207.3" fill="#2f6f73"/>
<text x="473.7" y="250.7" text-anchor="middle" font-size="10" font-weight="400" fill="#1d2528">0.52</text>
<rect x="500.9" y="402.9" width="38.3" height="61.1" fill="#b24f2a"/>
<text x="520.0" y="396.9" text-anchor="middle" font-size="10" font-weight="400" fill="#1d2528">0.15</text>
<rect x="547.1" y="89.7" width="38.3" height="374.3" fill="#5f5aa2"/>
<text x="566.3" y="83.7" text-anchor="middle" font-size="10" font-weight="400" fill="#1d2528">0.94</text>
<text x="692.8" y="498.0" text-anchor="middle" font-size="12" font-weight="400" fill="#1d2528">High</text>
<rect x="673.7" y="149.1" width="38.3" height="314.9" fill="#b24f2a"/>
<text x="692.8" y="143.1" text-anchor="middle" font-size="10" font-weight="400" fill="#1d2528">0.79</text>
<text x="865.6" y="498.0" text-anchor="middle" font-size="12" font-weight="400" fill="#1d2528">Very high</text>
<rect x="800.2" y="123.5" width="38.3" height="340.5" fill="#2f6f73"/>
<text x="819.3" y="117.5" text-anchor="middle" font-size="10" font-weight="400" fill="#1d2528">0.85</text>
<rect x="846.5" y="135.5" width="38.3" height="328.5" fill="#b24f2a"/>
<text x="865.6" y="129.5" text-anchor="middle" font-size="10" font-weight="400" fill="#1d2528">0.82</text>
<rect x="100" y="516" width="12" height="12" fill="#2f6f73"/>
<text x="118.0" y="526.0" text-anchor="start" font-size="12" font-weight="400" fill="#1d2528">Mash/BioNJ</text>
<rect x="260" y="516" width="12" height="12" fill="#b24f2a"/>
<text x="278.0" y="526.0" text-anchor="start" font-size="12" font-weight="400" fill="#1d2528">MAFFT/IQ-TREE</text>
<rect x="420" y="516" width="12" height="12" fill="#5f5aa2"/>
<text x="438.0" y="526.0" text-anchor="start" font-size="12" font-weight="400" fill="#1d2528">Mauve/IQ-TREE</text>
</svg>
